<svg xmlns="http://www.w3.org/2000/svg" viewBox="0 0 222.902 73.255">
  <defs>
    <style>
      .cls-1 {
        fill: #473951;
      }
    </style>
  </defs>
  <g id="Group_1" data-name="Group 1" transform="translate(-238.8 -16.8)">
    <path id="Path_1" data-name="Path 1" class="cls-1" d="M251.557,16.8l5.368,6.183,5.4-6.183h12.727V46.476H261.9V31.638l-4.976,5.73-4.976-5.73V46.506H238.8V16.8Z" transform="translate(0)"/>
    <path id="Path_2" data-name="Path 2" class="cls-1" d="M383.657,36a14.252,14.252,0,0,1,5.157.9,12.229,12.229,0,0,1,4.071,2.533,11.179,11.179,0,0,1,2.654,3.86,12.961,12.961,0,0,1,.03,9.741A11.552,11.552,0,0,1,388.9,59.4a15.188,15.188,0,0,1-11.762-.6,11.331,11.331,0,0,1-4.584-4.252,11.992,11.992,0,0,1-1.659-6.363,12.379,12.379,0,0,1,1.629-6.333,11.329,11.329,0,0,1,4.524-4.313A13.693,13.693,0,0,1,383.657,36Zm0,14.6a2.547,2.547,0,0,0,1.93-.724,2.593,2.593,0,0,0,.724-1.93,2.5,2.5,0,0,0-2.684-2.684,2.868,2.868,0,0,0-1.056.181,1.939,1.939,0,0,0-.814.543,2.708,2.708,0,0,0-.543.844,3.154,3.154,0,0,0-.181,1.086,2.64,2.64,0,0,0,.724,1.93A2.59,2.59,0,0,0,383.657,50.6Z" transform="translate(-92.26 -13.41)"/>
    <path id="Path_3" data-name="Path 3" class="cls-1" d="M493.146,60.514h-11.37V46.762a3.752,3.752,0,0,0-.513-2.051,1.893,1.893,0,0,0-1.689-.754,3,3,0,0,0-1.086.211,4.955,4.955,0,0,0-1.056.543v15.8H465.4v-23.4h12.033v2.925a10.6,10.6,0,0,1,3.408-2.413,9.9,9.9,0,0,1,3.86-.724q4.207,0,6.333,2.352a9.368,9.368,0,0,1,2.141,6.514V60.514Z" transform="translate(-158.261 -14.038)"/>
    <path id="Path_4" data-name="Path 4" class="cls-1" d="M581,36a13.343,13.343,0,0,1,6.514,1.568,10.975,10.975,0,0,1,4.524,4.554,14.142,14.142,0,0,1,1.629,6.816v.754h-12.3a6.33,6.33,0,0,0,.875,1.6,5.071,5.071,0,0,0,1.327,1.206,6.366,6.366,0,0,0,1.659.754,6.635,6.635,0,0,0,1.93.271,10.133,10.133,0,0,0,1.9-.181,9.876,9.876,0,0,0,1.749-.483,9.219,9.219,0,0,0,1.538-.784,7.505,7.505,0,0,0,1.3-1.086v4.1a12.545,12.545,0,0,1-4.916,3.951,16.1,16.1,0,0,1-6.454,1.237,17.359,17.359,0,0,1-3.83-.392,15.917,15.917,0,0,1-3.317-1.146,10.114,10.114,0,0,1-2.714-1.87,11.34,11.34,0,0,1-2.021-2.473,12.247,12.247,0,0,1-1.267-3.016,14.19,14.19,0,0,1-.422-3.468,12.258,12.258,0,0,1,1.538-6.152,10.721,10.721,0,0,1,4.343-4.252A13.554,13.554,0,0,1,581,36Zm-.392,9.59h5.67a4.542,4.542,0,0,0-.844-2.714,2.53,2.53,0,0,0-2.081-1,2.334,2.334,0,0,0-1.93,1,3.8,3.8,0,0,0-.784,2.473v.241Z" transform="translate(-230.407 -13.41)"/>
    <path id="Path_5" data-name="Path 5" class="cls-1" d="M666.213,37.53l2.835,6.243,2.714-6.243h11.671L670.767,67.508H657.708l4.825-11.4L654.3,37.5h11.913Z" transform="translate(-290.191 -14.457)"/>
    <path id="Path_6" data-name="Path 6" class="cls-1" d="M385.638,139.5l-13.662,22.227h12.968v7.479H353.7l13.662-22.227H354.816V139.53h30.822Z" transform="translate(-80.248 -85.695)"/>
    <path id="Path_7" data-name="Path 7" class="cls-1" d="M468.23,144.656a10.2,10.2,0,0,0,2.714,1,15.813,15.813,0,0,0,3.438.362,15.591,15.591,0,0,0,3.227-.332,9.528,9.528,0,0,0,2.624-1v23.4H468.2V144.656Zm11.943-3.348a3.216,3.216,0,0,1-1.025,2.413,3.263,3.263,0,0,1-2.383,1.025,3.216,3.216,0,0,1-2.413-1.025,3.33,3.33,0,0,1-1.025-2.413,3.152,3.152,0,0,1,1.025-2.383,3.33,3.33,0,0,1,2.413-1.025,3.234,3.234,0,0,1,2.383,1A3.281,3.281,0,0,1,480.173,141.308Z" transform="translate(-160.216 -84.578)"/>
    <path id="Path_8" data-name="Path 8" class="cls-1" d="M550.746,183.314h-11.37V169.532a3.752,3.752,0,0,0-.513-2.051,1.893,1.893,0,0,0-1.689-.754,3,3,0,0,0-1.086.211,4.954,4.954,0,0,0-1.056.543v15.833H523v-23.4h12.033v2.925a10.6,10.6,0,0,1,3.408-2.413,9.894,9.894,0,0,1,3.86-.724q4.207,0,6.333,2.352a9.368,9.368,0,0,1,2.141,6.514v14.748Z" transform="translate(-198.489 -99.803)"/>
    <path id="Path_9" data-name="Path 9" class="cls-1" d="M653.649,178.648c0,3.921-1.025,6.816-3.046,8.686q-3.076,2.8-9.5,2.8a32.108,32.108,0,0,1-7.63-.875,20.977,20.977,0,0,1-6.213-2.533V176.084a13.5,13.5,0,0,0,9.56,4.192,7.033,7.033,0,0,0,3.619-.754,2.412,2.412,0,0,0,1.267-2.171,5.364,5.364,0,0,0-.06-.694,7.489,7.489,0,0,1-2.141.9,10.508,10.508,0,0,1-2.8.362,9.818,9.818,0,0,1-6.967-2.383,8.563,8.563,0,0,1-2.533-6.484,9.8,9.8,0,0,1,1.056-4.524,6.981,6.981,0,0,1,2.925-3.046,10.421,10.421,0,0,1,4.132-1.176c.754-.06,1.6-.121,2.533-.151s1.93-.03,3.046-.06h12.787v18.548Zm-13.692-6.3a2.535,2.535,0,0,0,1.659-.513v-5.067h-.332a5.279,5.279,0,0,0-2.956.694,2.555,2.555,0,0,0-1.025,2.262,2.593,2.593,0,0,0,.724,1.93A2.7,2.7,0,0,0,639.957,172.344Z" transform="translate(-271.264 -100.083)"/>
    <path id="Path_10" data-name="Path 10" class="cls-1" d="M736.2,158.7a13.342,13.342,0,0,1,6.514,1.568,10.975,10.975,0,0,1,4.524,4.554,14.141,14.141,0,0,1,1.629,6.816v.754h-12.3a6.334,6.334,0,0,0,.875,1.6,5.075,5.075,0,0,0,1.327,1.206,6.366,6.366,0,0,0,1.659.754,6.635,6.635,0,0,0,1.93.271,10.132,10.132,0,0,0,1.9-.181,9.875,9.875,0,0,0,1.749-.483,9.213,9.213,0,0,0,1.538-.784,7.5,7.5,0,0,0,1.3-1.086v4.1a12.546,12.546,0,0,1-4.916,3.951,16.1,16.1,0,0,1-6.454,1.237,17.36,17.36,0,0,1-3.83-.392,15.919,15.919,0,0,1-3.317-1.146,10.114,10.114,0,0,1-2.714-1.87,11.336,11.336,0,0,1-2.021-2.473,12.242,12.242,0,0,1-1.267-3.016,14.188,14.188,0,0,1-.422-3.468,12.259,12.259,0,0,1,1.538-6.152,10.722,10.722,0,0,1,4.343-4.252A13.641,13.641,0,0,1,736.2,158.7Zm-.362,9.621h5.67a4.542,4.542,0,0,0-.844-2.714,2.53,2.53,0,0,0-2.081-1,2.334,2.334,0,0,0-1.93,1,3.794,3.794,0,0,0-.784,2.473v.241Z" transform="translate(-338.801 -99.105)"/>
    <path id="Path_11" data-name="Path 11" class="cls-1" d="M838.647,165.34a5.617,5.617,0,0,1-1.568,4.162,5.362,5.362,0,0,1-4.011,1.568,6.619,6.619,0,0,1-4.855-2.141,4.429,4.429,0,0,0-1.357,2.2,11.385,11.385,0,0,0-.422,3.257v8.927H814.4v-23.4h12.033v4.976h.09a9.6,9.6,0,0,1,2.775-3.86,6.011,6.011,0,0,1,3.8-1.327,5.41,5.41,0,0,1,3.981,1.6A5.5,5.5,0,0,1,838.647,165.34Z" transform="translate(-402.007 -99.803)"/>
    <path id="Path_12" data-name="Path 12" class="cls-1" d="M920.214,166.732a11.38,11.38,0,0,0-2.775-1.9,6.39,6.39,0,0,0-2.714-.663,2.318,2.318,0,0,0-1.418.392,1.135,1.135,0,0,0-.543,1,1.631,1.631,0,0,0,.784,1.448,5.617,5.617,0,0,0,1.176.513,18.905,18.905,0,0,0,1.93.513,10.667,10.667,0,0,1,5.4,2.654,6.333,6.333,0,0,1,1.719,4.554,6.616,6.616,0,0,1-2.925,5.73,12.863,12.863,0,0,1-7.6,2.081,25.447,25.447,0,0,1-2.956-.181c-1.025-.121-2.141-.271-3.317-.513a29.6,29.6,0,0,1-3.408-.814c-1.086-.332-2.141-.694-3.167-1.116l2.684-6.575a8.694,8.694,0,0,0,2.925,2.594,7.164,7.164,0,0,0,3.529.965,2.869,2.869,0,0,0,1.689-.452,1.437,1.437,0,0,0,.633-1.206,1.675,1.675,0,0,0-.754-1.448,8.116,8.116,0,0,0-2.352-.965c-2.835-.754-4.8-1.749-5.851-2.986a6.277,6.277,0,0,1-1.629-4.192,6.17,6.17,0,0,1,2.986-5.429c1.99-1.3,4.825-1.93,8.474-1.93a30.633,30.633,0,0,1,5.64.513,21.49,21.49,0,0,1,4.825,1.508Z" transform="translate(-462.071 -99.175)"/>
  </g>
</svg>
