<svg id="Group_4" data-name="Group 4" xmlns="http://www.w3.org/2000/svg" viewBox="0 0 181.305 181.305">
  <defs>
    <style>
      .cls-1 {
        fill: #473951;
      }

      .cls-2 {
        fill: none;
        stroke: #ffe7e3;
        stroke-miterlimit: 10;
        stroke-width: 4px;
      }
    </style>
  </defs>
  <g id="Group_3" data-name="Group 3" transform="translate(48.567 46.521)">
    <g id="Group_2" data-name="Group 2">
      <path id="Path_13" data-name="Path 13" class="cls-1" d="M133.192,71.276c0,10.229-6.332,16.756-18.9,19.581v.195q10.083,2.192,14.905,7.307c3.215,3.41,4.774,7.891,4.774,13.541,0,7.891-3.41,13.639-10.132,17.341q-9.937,5.553-32.149,5.553-21.335,0-31.564-5.845c-6.819-3.9-10.327-9.742-10.327-17.536q0-8.183,4.676-13.152c3.117-3.312,7.988-5.748,14.516-7.209v-.195C56.814,88.032,50.579,81.6,50.579,71.471a19.78,19.78,0,0,1,9.839-17.73c6.527-4.092,16.367-6.04,29.421-6.04,15.1,0,26.206,1.851,33.025,5.65C129.782,57.15,133.192,63.092,133.192,71.276Zm-41.014,45.69a6.4,6.4,0,0,0,4.871-2.046A6.61,6.61,0,0,0,99,110.049a9.051,9.051,0,0,0-.487-2.825,9.487,9.487,0,0,0-1.461-2.338,6.568,6.568,0,0,0-2.338-1.559,7.118,7.118,0,0,0-2.923-.585,6.764,6.764,0,0,0-4.968,2.046,6.912,6.912,0,0,0-2.143,5.066,6.988,6.988,0,0,0,.585,2.825,6.179,6.179,0,0,0,1.559,2.241,7.283,7.283,0,0,0,2.338,1.461A7.939,7.939,0,0,0,92.178,116.966Zm-.292-37.9a6.548,6.548,0,0,0,4.871-2.046A6.855,6.855,0,0,0,98.9,72.055a6.7,6.7,0,0,0-2.046-4.871,6.829,6.829,0,0,0-5.066-2.046,6.819,6.819,0,0,0-6.819,6.917,6.764,6.764,0,0,0,2.046,4.968A6.4,6.4,0,0,0,91.885,79.069Z" transform="translate(-49.8 -47.7)"/>
    </g>
  </g>
  <circle id="Ellipse_1" data-name="Ellipse 1" class="cls-2" cx="88.652" cy="88.652" r="88.652" transform="translate(2 2)"/>
</svg>
