<svg xmlns="http://www.w3.org/2000/svg" viewBox="0 0 58.364 58.363">
  <defs>
    <style>
      .cls-1 {
        fill: #1f3f77;
      }

      .cls-2 {
        fill: none;
        stroke: #1f3f77;
        stroke-miterlimit: 10;
        stroke-width: 2px;
      }
    </style>
  </defs>
  <g id="Group_136" data-name="Group 136" transform="translate(-1 -1)">
    <g id="Group_135" data-name="Group 135" transform="translate(16.401 16.617)">
      <g id="Group_134" data-name="Group 134" transform="translate(0)">
        <path id="Path_120" data-name="Path 120" class="cls-1" d="M76.186,65.118a10.186,10.186,0,0,1-1.765,5.853A11.7,11.7,0,0,1,69.466,75a17.35,17.35,0,0,1-7.216,1.425A17.064,17.064,0,0,1,55.1,74.966a11.333,11.333,0,0,1-4.862-4.119,10.989,10.989,0,0,1-1.734-6.1,14.879,14.879,0,0,1,2.694-8.362,24.86,24.86,0,0,1,7.9-7.185H75.536v.465a20.238,20.238,0,0,0-4.862,2.261,20.95,20.95,0,0,0-4.057,3.314,11.652,11.652,0,0,1,7.03,3.314A8.991,8.991,0,0,1,76.186,65.118ZM62.126,66.45a2.413,2.413,0,0,0,.96-.186,2.218,2.218,0,0,0,.774-.5,2.4,2.4,0,0,0,.5-.743,2.263,2.263,0,0,0,.186-.929,2.479,2.479,0,0,0-.681-1.765,2.286,2.286,0,0,0-1.734-.712,2.23,2.23,0,0,0-1.7.743,2.314,2.314,0,0,0-.712,1.734,2.173,2.173,0,0,0,.681,1.672A2.458,2.458,0,0,0,62.126,66.45Z" transform="translate(-48.5 -49.2)"/>
      </g>
    </g>
    <circle id="Ellipse_29" data-name="Ellipse 29" class="cls-2" cx="28.182" cy="28.182" r="28.182" transform="translate(2 2)"/>
  </g>
</svg>
