<svg xmlns="http://www.w3.org/2000/svg" viewBox="0 0 57.991 57.991">
  <defs>
    <style>
      .cls-1 {
        fill: #1f3f77;
      }

      .cls-2 {
        fill: none;
        stroke: #1f3f77;
        stroke-miterlimit: 10;
        stroke-width: 2px;
      }
    </style>
  </defs>
  <g id="Group_127" data-name="Group 127" transform="translate(1 1)">
    <g id="Group_79" data-name="Group 79" transform="translate(15.69 14.49)">
      <g id="Group_78" data-name="Group 78">
        <path id="Path_85" data-name="Path 85" class="cls-1" d="M76.535,66.174a9.24,9.24,0,0,1-1.477,5.168A9.683,9.683,0,0,1,71,74.881a13.441,13.441,0,0,1-5.907,1.261A16.336,16.336,0,0,1,57.307,74.3,7.961,7.961,0,0,1,53,69.189l.215-.246a12.613,12.613,0,0,0,2.953,1.477,10.117,10.117,0,0,0,3.107.461,6.724,6.724,0,0,0,3.907-1.046,3.159,3.159,0,0,0,1.507-2.707,2.762,2.762,0,0,0-1.446-2.523,8.39,8.39,0,0,0-4.276-.861,10.086,10.086,0,0,0-1.723.123,14.057,14.057,0,0,0-1.415.308,8.03,8.03,0,0,0-1.138.431,3.67,3.67,0,0,0-.8.461l-.277-.215L57.553,49.1H77.7v4.769H68.29l-.923,3.6a10.323,10.323,0,0,1,6.83,2.646A8.019,8.019,0,0,1,76.535,66.174Z" transform="translate(-53 -49.1)"/>
      </g>
    </g>
    <circle id="Ellipse_26" data-name="Ellipse 26" class="cls-2" cx="27.996" cy="27.996" r="27.996" transform="translate(0 0)"/>
  </g>
</svg>
