<svg xmlns="http://www.w3.org/2000/svg" viewBox="0 0 62.82 62.82">
  <defs>
    <style>
      .cls-1 {
        fill: #1f3f77;
      }

      .cls-2 {
        fill: none;
        stroke: #1f3f77;
        stroke-width: 2px;
      }
    </style>
  </defs>
  <g id="Group_139" data-name="Group 139" transform="translate(-1 -1)">
    <g id="Group_138" data-name="Group 138" transform="translate(17.974 17.272)">
      <g id="Group_137" data-name="Group 137">
        <path id="Path_121" data-name="Path 121" class="cls-1" d="M78.406,55.787c0,3.509-2.172,5.748-6.483,6.717v.067a9.681,9.681,0,0,1,5.113,2.506,6.467,6.467,0,0,1,1.637,4.645A6.334,6.334,0,0,1,75.2,75.671q-3.409,1.9-11.028,1.9-7.318,0-10.827-2.005A6.535,6.535,0,0,1,49.8,69.555a6.314,6.314,0,0,1,1.6-4.511,9.569,9.569,0,0,1,4.979-2.473V62.5c-4.177-.969-6.316-3.175-6.316-6.65a6.785,6.785,0,0,1,3.375-6.082c2.239-1.4,5.614-2.072,10.092-2.072,5.18,0,8.989.635,11.329,1.938A6.506,6.506,0,0,1,78.406,55.787ZM64.337,71.46a2.2,2.2,0,0,0,1.671-.7,2.267,2.267,0,0,0,.668-1.671,3.1,3.1,0,0,0-.167-.969,3.254,3.254,0,0,0-.5-.8,2.253,2.253,0,0,0-.8-.535,2.442,2.442,0,0,0-1-.2,2.32,2.32,0,0,0-1.7.7,2.371,2.371,0,0,0-.735,1.738,2.4,2.4,0,0,0,.2.969,2.119,2.119,0,0,0,.535.769,2.5,2.5,0,0,0,.8.5A3.357,3.357,0,0,0,64.337,71.46Zm-.1-13a2.246,2.246,0,0,0,1.671-.7,2.352,2.352,0,0,0,.735-1.7,2.3,2.3,0,0,0-.7-1.671,2.343,2.343,0,0,0-1.738-.7,2.2,2.2,0,0,0-1.671.7,2.267,2.267,0,0,0-.668,1.671,2.32,2.32,0,0,0,.7,1.7A2.2,2.2,0,0,0,64.236,58.461Z" transform="translate(-49.8 -47.7)"/>
      </g>
    </g>
    <path id="Path_122" data-name="Path 122" class="cls-2" d="M30.41,0A30.41,30.41,0,1,1,0,30.41,30.41,30.41,0,0,1,30.41,0Z" transform="translate(2 2)"/>
  </g>
</svg>
