<?xml version="1.0" encoding="utf-8"?>
<!-- Generator: Adobe Illustrator 23.0.0, SVG Export Plug-In . SVG Version: 6.00 Build 0)  -->
<svg version="1.1" id="Layer_1" xmlns="http://www.w3.org/2000/svg" xmlns:xlink="http://www.w3.org/1999/xlink" x="0px" y="0px"
	 viewBox="0 0 58 58" style="enable-background:new 0 0 58 58;" xml:space="preserve">
<style type="text/css">
	.st0{fill:#473951;}
	.st1{fill:none;stroke:#473951;stroke-width:2;stroke-miterlimit:10;}
</style>
<g id="Group_127" transform="translate(1 1)">
	<g id="Group_79" transform="translate(15.69 14.49)">
		<g id="Group_78">
			<path id="Path_85" class="st0" d="M23.5,17.1c0,1.8-0.5,3.6-1.5,5.2c-1,1.5-2.4,2.8-4.1,3.5c-1.8,0.9-3.9,1.3-5.9,1.3
				c-2.7,0-5.4-0.6-7.8-1.8c-2.1-1-3.7-2.9-4.3-5.1l0.2-0.2c0.9,0.6,1.9,1.1,3,1.5c1,0.3,2.1,0.5,3.1,0.5c1.4,0.1,2.7-0.3,3.9-1
				c0.9-0.6,1.5-1.6,1.5-2.7c0-1-0.5-2-1.4-2.5c-1.3-0.7-2.8-1-4.3-0.9c-0.6,0-1.2,0-1.7,0.1c-0.5,0.1-0.9,0.2-1.4,0.3
				c-0.4,0.1-0.8,0.3-1.1,0.4c-0.3,0.1-0.6,0.3-0.8,0.5l-0.3-0.2L4.6,0h20.1v4.8h-9.4l-0.9,3.6c2.5,0,5,1,6.8,2.6
				C22.8,12.6,23.6,14.8,23.5,17.1z"/>
		</g>
	</g>
	<circle id="Ellipse_26" class="st1" cx="28" cy="28" r="28"/>
</g>
</svg>
