<svg xmlns="http://www.w3.org/2000/svg" viewBox="0 0 64.82 64.82">
  <defs>
    <style>
      .cls-1 {
        fill: #1f3f77;
      }

      .cls-2 {
        fill: none;
        stroke: #1f3f77;
        stroke-miterlimit: 10;
        stroke-width: 2px;
      }
    </style>
  </defs>
  <g id="Group_142" data-name="Group 142" transform="translate(-1 -1)">
    <g id="Group_141" data-name="Group 141" transform="translate(21.088 17.705)">
      <g id="Group_140" data-name="Group 140">
        <path id="Path_123" data-name="Path 123" class="cls-1" d="M80.5,59.788a16.946,16.946,0,0,1-.311,3.245,20.309,20.309,0,0,1-.9,3.141,24.037,24.037,0,0,1-1.519,3.176c-.621,1.07-1.346,2.14-2.14,3.245h5.7v5.316H57.3q5.851-7.3,7.766-10.355A10.454,10.454,0,0,0,67,62.515a2.94,2.94,0,0,0-.863-2.175,2.871,2.871,0,0,0-2.106-.9,4.711,4.711,0,0,0-3.141,1.346,18.7,18.7,0,0,0-1.622,1.657,24.334,24.334,0,0,0-1.795,2.347l.242-13.565c.345-.242.725-.518,1.174-.794s.932-.587,1.484-.9a17.5,17.5,0,0,1,3.521-1.519,15.46,15.46,0,0,1,4.142-.518,13.74,13.74,0,0,1,6.42,1.484,10.471,10.471,0,0,1,4.487,4.246A13.258,13.258,0,0,1,80.5,59.788Z" transform="translate(-57.3 -47.5)"/>
      </g>
    </g>
    <circle id="Ellipse_30" data-name="Ellipse 30" class="cls-2" cx="31.41" cy="31.41" r="31.41" transform="translate(2 2)"/>
  </g>
</svg>
