<?xml version="1.0" encoding="utf-8"?>
<!-- Generator: Adobe Illustrator 23.0.0, SVG Export Plug-In . SVG Version: 6.00 Build 0)  -->
<svg version="1.1" id="Layer_1" xmlns="http://www.w3.org/2000/svg" xmlns:xlink="http://www.w3.org/1999/xlink" x="0px" y="0px"
	 viewBox="0 0 62.8 62.8" style="enable-background:new 0 0 62.8 62.8;" xml:space="preserve">
<style type="text/css">
	.st0{fill:#473951;}
	.st1{fill:none;stroke:#473951;stroke-width:2;}
</style>
<g id="Group_139" transform="translate(-1 -1)">
	<g id="Group_138" transform="translate(17.974 17.272)">
		<g id="Group_137">
			<path id="Path_121" class="st0" d="M28.6,8.1c0,3.5-2.2,5.7-6.5,6.7v0.1c1.9,0.3,3.7,1.2,5.1,2.5c1.1,1.3,1.7,2.9,1.6,4.6
				c0.1,2.5-1.2,4.8-3.5,5.9c-2.3,1.3-5.9,1.9-11,1.9c-4.9,0-8.5-0.7-10.8-2c-2.2-1.2-3.6-3.5-3.5-6c-0.1-1.7,0.5-3.3,1.6-4.5
				c1.4-1.3,3.1-2.2,5-2.5v-0.1c-4.2-1-6.3-3.2-6.3-6.7C0.2,5.7,1.5,3.3,3.6,2.1C5.9,0.7,9.3,0,13.7,0c5.2,0,9,0.6,11.3,1.9
				C27.4,3.1,28.7,5.5,28.6,8.1z M14.5,23.8c0.6,0,1.2-0.2,1.7-0.7c0.4-0.4,0.7-1,0.7-1.7c0-0.3-0.1-0.7-0.2-1
				c-0.1-0.3-0.3-0.6-0.5-0.8c-0.2-0.2-0.5-0.4-0.8-0.5c-0.3-0.1-0.7-0.2-1-0.2c-0.6,0-1.3,0.2-1.7,0.7C12.2,20,12,20.7,12,21.3
				c0,0.3,0.1,0.7,0.2,1c0.1,0.3,0.3,0.6,0.5,0.8c0.2,0.2,0.5,0.4,0.8,0.5C13.8,23.7,14.2,23.7,14.5,23.8z M14.4,10.8
				c0.6,0,1.2-0.2,1.7-0.7c0.5-0.4,0.7-1.1,0.7-1.7c0-0.6-0.2-1.2-0.7-1.7C15.7,6.2,15.1,6,14.4,6c-0.6,0-1.2,0.2-1.7,0.7
				c-0.4,0.4-0.7,1-0.7,1.7c0,0.6,0.2,1.3,0.7,1.7C13.2,10.5,13.8,10.8,14.4,10.8L14.4,10.8z"/>
		</g>
	</g>
	<path id="Path_122" class="st1" d="M32.4,2c16.8,0,30.4,13.6,30.4,30.4S49.2,62.8,32.4,62.8S2,49.2,2,32.4C2,15.6,15.6,2,32.4,2
		C32.4,2,32.4,2,32.4,2z"/>
</g>
</svg>
