<?xml version="1.0" encoding="utf-8"?>
<!-- Generator: Adobe Illustrator 23.0.0, SVG Export Plug-In . SVG Version: 6.00 Build 0)  -->
<svg version="1.1" id="Layer_1" xmlns="http://www.w3.org/2000/svg" xmlns:xlink="http://www.w3.org/1999/xlink" x="0px" y="0px"
	 viewBox="0 0 58.4 58.4" style="enable-background:new 0 0 58.4 58.4;" xml:space="preserve">
<style type="text/css">
	.st0{fill:#473951;}
	.st1{fill:none;stroke:#473951;stroke-width:2;stroke-miterlimit:10;}
</style>
<g id="Group_125" transform="translate(1 1)">
	<g id="Group_39" transform="translate(18.828 14.586)">
		<g id="Group_38">
			<path id="Path_72" class="st0" d="M10.6,0c3.2,0,5.5,0.6,7.2,1.8C19.4,3,20.4,5,20.3,7c0,1.3-0.3,2.5-1.1,3.6
				c-0.9,1.1-2.1,1.9-3.4,2.4c1.4,0.4,2.7,1.3,3.6,2.5c0.8,1.2,1.2,2.5,1.2,4c0.1,2.2-0.8,4.2-2.6,5.5c-2.2,1.3-4.7,2-7.2,1.8H0
				v-9.3c1.3,1.7,3.3,2.7,5.5,2.8c0.8,0.1,1.7-0.2,2.3-0.7c0.6-0.4,0.9-1.1,0.8-1.8c0-0.9-0.4-1.8-1.1-2.3c-0.8-0.6-1.9-0.9-2.9-0.9
				c-0.7,0-1.4,0.1-2,0.2c-0.8,0.2-1.7,0.4-2.5,0.7v-4.7c0.6,0.2,1.3,0.3,2,0.4c0.7,0.1,1.3,0.1,2,0.1c0.6,0,1.2-0.1,1.8-0.2
				c0.5-0.1,1-0.3,1.4-0.6c0.4-0.2,0.7-0.5,0.9-0.9c0.2-0.4,0.3-0.8,0.3-1.2c0-0.7-0.3-1.5-0.9-1.9C6.8,5.8,6,5.6,5.2,5.6
				c-1,0-2,0.2-2.9,0.7C1.3,6.9,0.6,7.6,0,8.5V0H10.6z"/>
		</g>
	</g>
	<circle id="Ellipse_13" class="st1" cx="28.2" cy="28.2" r="28.2"/>
</g>
</svg>
