<svg xmlns="http://www.w3.org/2000/svg" viewBox="0 0 58.361 58.36">
  <defs>
    <style>
      .cls-1 {
        fill: #1f3f77;
      }

      .cls-2 {
        fill: none;
        stroke: #1f3f77;
        stroke-miterlimit: 10;
        stroke-width: 2px;
      }
    </style>
  </defs>
  <g id="Group_125" data-name="Group 125" transform="translate(1 1)">
    <g id="Group_39" data-name="Group 39" transform="translate(18.828 14.586)">
      <g id="Group_38" data-name="Group 38">
        <path id="Path_72" data-name="Path 72" class="cls-1" d="M73.391,49.1c3.159,0,5.543.588,7.184,1.8a6.1,6.1,0,0,1,2.477,5.233,5.622,5.622,0,0,1-1.115,3.561A8.927,8.927,0,0,1,78.5,62.137a7.165,7.165,0,0,1,3.561,2.508,6.546,6.546,0,0,1,1.208,3.964,6.231,6.231,0,0,1-2.6,5.481,12.493,12.493,0,0,1-7.215,1.827H62.8V66.6a6.818,6.818,0,0,0,5.45,2.756,3.521,3.521,0,0,0,2.323-.681,2.235,2.235,0,0,0,.836-1.827,2.819,2.819,0,0,0-1.115-2.323,4.628,4.628,0,0,0-2.942-.9,9.57,9.57,0,0,0-2.044.217,19.189,19.189,0,0,0-2.477.743V59.846a11.7,11.7,0,0,0,1.982.372c.65.062,1.3.124,1.982.124a6.573,6.573,0,0,0,1.827-.217,5.244,5.244,0,0,0,1.394-.588,2.483,2.483,0,0,0,.867-.929,2.376,2.376,0,0,0,.31-1.239,2.313,2.313,0,0,0-.867-1.92,3.677,3.677,0,0,0-2.354-.712,6.018,6.018,0,0,0-2.942.743,5.816,5.816,0,0,0-2.2,2.137V49.1Z" transform="translate(-62.8 -49.1)"/>
      </g>
    </g>
    <circle id="Ellipse_13" data-name="Ellipse 13" class="cls-2" cx="28.18" cy="28.18" r="28.18" transform="translate(0 0)"/>
  </g>
</svg>
