<?xml version="1.0" encoding="utf-8"?>
<!-- Generator: Adobe Illustrator 22.1.0, SVG Export Plug-In . SVG Version: 6.00 Build 0)  -->
<svg version="1.1" id="Layer_1" xmlns="http://www.w3.org/2000/svg" xmlns:xlink="http://www.w3.org/1999/xlink" x="0px" y="0px"
	 viewBox="0 0 24.9 25" style="enable-background:new 0 0 24.9 25;" xml:space="preserve">
<style type="text/css">
	.st0{fill:#473951;}
</style>
<path id="Path_186" class="st0" d="M20,15.2c-1.7,0-3.2,0.8-4.1,2.2l-6.4-3c0.2-0.5,0.3-1.1,0.3-1.7c0-0.7-0.2-1.5-0.5-2.1l6.5-3
	c1.4,2.3,4.5,3,6.8,1.6s3-4.5,1.6-6.8s-4.5-3-6.8-1.6C15.9,1.7,15,3.3,15,5c0,0.4,0,0.7,0.1,1L8.3,9.3c-1.9-1.9-5-1.9-7,0.1
	s-1.9,5,0.1,7s5,1.9,7-0.1c0.1-0.1,0.2-0.2,0.3-0.3l6.6,3.1c-0.1,0.4-0.1,0.8-0.1,1.1c0,2.7,2.2,4.9,4.9,4.9s4.9-2.2,4.9-4.9
	S22.7,15.2,20,15.2C20,15.2,20,15.2,20,15.2L20,15.2z M20,23.4c-1.8,0-3.3-1.5-3.3-3.3s1.5-3.3,3.3-3.3c1.8,0,3.3,1.5,3.3,3.3l0,0
	C23.2,21.9,21.8,23.4,20,23.4C20,23.4,20,23.4,20,23.4z M4.8,16c-1.8,0-3.3-1.5-3.3-3.3S3,9.5,4.8,9.5s3.3,1.5,3.3,3.3l0,0
	C8.1,14.6,6.6,16,4.8,16C4.8,16,4.8,16,4.8,16z M20,1.7c1.8,0,3.3,1.5,3.3,3.3S21.7,8.3,20,8.3c-1.8,0-3.3-1.5-3.3-3.3
	C16.7,3.2,18.1,1.7,20,1.7C19.9,1.7,19.9,1.7,20,1.7z"/>
</svg>
