<?xml version="1.0" encoding="utf-8"?>
<!-- Generator: Adobe Illustrator 22.1.0, SVG Export Plug-In . SVG Version: 6.00 Build 0)  -->
<svg version="1.1" id="Layer_1" xmlns="http://www.w3.org/2000/svg" xmlns:xlink="http://www.w3.org/1999/xlink" x="0px" y="0px"
	 viewBox="0 0 103.6 103.6" style="enable-background:new 0 0 103.6 103.6;" xml:space="preserve">
<style type="text/css">
	.st0{fill:#473951;}
	.st1{fill:#F77965;}
</style>
<g id="Group_3" transform="translate(25.17 24.064)">
	<g id="Group_2">
		<path id="Path_13" class="st0" d="M50,16.3c0,5.8-3.6,9.5-10.7,11v0.1c3.8,0.8,6.6,2.2,8.4,4.1c1.9,2.1,2.8,4.8,2.7,7.6
			c0.2,4.1-2,7.9-5.7,9.8C41,51,35,52.1,26.6,52.1c-8,0-14-1.1-17.8-3.3c-3.7-1.9-6-5.7-5.8-9.9c-0.1-2.7,0.8-5.4,2.6-7.4
			c1.8-1.9,4.5-3.2,8.2-4.1v-0.1C7,25.7,3.5,22.1,3.5,16.4c-0.1-4.1,2-7.9,5.5-10C12.7,4.1,18.2,3,25.6,3c8.5,0,14.8,1,18.6,3.2
			C48,8.1,50.3,12,50,16.3z M26.9,42c1,0,2-0.4,2.7-1.2c0.7-0.7,1.1-1.7,1.1-2.8c0-0.5-0.1-1.1-0.3-1.6c-0.2-0.5-0.5-0.9-0.8-1.3
			c-0.4-0.4-0.8-0.7-1.3-0.9c-0.5-0.2-1.1-0.3-1.6-0.3c-1.1,0-2.1,0.4-2.8,1.2c-0.8,0.7-1.2,1.8-1.2,2.9c0,0.5,0.1,1.1,0.3,1.6
			c0.2,0.5,0.5,0.9,0.9,1.3c0.4,0.4,0.8,0.6,1.3,0.8C25.8,41.9,26.3,42,26.9,42L26.9,42z M26.7,20.7c1,0,2-0.4,2.7-1.2
			c0.8-0.7,1.2-1.7,1.2-2.8c0-1-0.4-2-1.2-2.7c-0.7-0.8-1.8-1.2-2.9-1.2c-2.1,0-3.8,1.7-3.8,3.8c0,0,0,0,0,0.1
			c0,1.1,0.4,2.1,1.2,2.8C24.7,20.3,25.7,20.7,26.7,20.7L26.7,20.7z"/>
	</g>
</g>
<path class="st1" d="M51.9,103.4c-28.4,0-51.5-23.1-51.5-51.5c0-28.4,23.1-51.5,51.5-51.5c28.4,0,51.5,23.1,51.5,51.5
	C103.4,80.3,80.3,103.4,51.9,103.4z M51.9,3.4C25.2,3.4,3.4,25.2,3.4,51.9s21.8,48.5,48.5,48.5s48.5-21.8,48.5-48.5
	S78.7,3.4,51.9,3.4z"/>
</svg>
